<?xml version="1.0" encoding="utf-8"?>
<!-- Uploaded to: SVG Repo, www.svgrepo.com, Generator: SVG Repo Mixer Tools -->
<svg width="800px" height="800px" viewBox="0 0 1024 1024" class="icon"  version="1.1" xmlns="http://www.w3.org/2000/svg"><path d="M921.6 742.4c0 14.08-11.52 25.6-25.6 25.6H153.6c-14.08 0-25.6-11.52-25.6-25.6V243.2c0-14.08 11.52-25.6 25.6-25.6h742.4c14.08 0 25.6 11.52 25.6 25.6v499.2z" fill="#E1E0A6" /><path d="M896 780.8H153.6c-21.76 0-38.4-16.64-38.4-38.4V243.2c0-21.76 16.64-38.4 38.4-38.4h742.4c21.76 0 38.4 16.64 38.4 38.4v499.2c0 21.76-16.64 38.4-38.4 38.4zM153.6 230.4c-7.68 0-12.8 5.12-12.8 12.8v499.2c0 7.68 5.12 12.8 12.8 12.8h742.4c7.68 0 12.8-5.12 12.8-12.8V243.2c0-7.68-5.12-12.8-12.8-12.8H153.6z" fill="#231C1C" /><path d="M588.8 742.4c0 14.08-11.52 25.6-25.6 25.6H256c-14.08 0-25.6-11.52-25.6-25.6 0 0 165.12-217.6 179.2-217.6 14.08 0 179.2 217.6 179.2 217.6z" fill="#B8CA43" /><path d="M563.2 780.8H256c-21.76 0-38.4-16.64-38.4-38.4v-3.84l2.56-3.84C389.12 512 401.92 512 409.6 512s20.48 0 189.44 222.72l2.56 3.84v3.84c0 21.76-16.64 38.4-38.4 38.4z m-320-34.56c1.28 5.12 6.4 8.96 12.8 8.96h307.2c6.4 0 10.24-3.84 12.8-8.96-58.88-76.8-142.08-183.04-166.4-206.08-24.32 23.04-107.52 129.28-166.4 206.08z" fill="#231C1C" /><path d="M921.6 729.6c0 20.48-16.64 38.4-38.4 38.4H428.8c-20.48 0-38.4-16.64-38.4-38.4 0 0 244.48-321.28 264.96-321.28C677.12 408.32 921.6 729.6 921.6 729.6z" fill="#B8CA43" /><path d="M883.2 780.8H428.8c-28.16 0-51.2-23.04-51.2-51.2v-3.84l2.56-3.84c248.32-326.4 267.52-326.4 275.2-326.4s26.88 0 275.2 326.4l2.56 3.84v3.84c1.28 28.16-21.76 51.2-49.92 51.2z m-478.72-47.36c1.28 11.52 12.8 21.76 24.32 21.76H883.2c12.8 0 23.04-8.96 24.32-21.76C803.84 596.48 684.8 446.72 656.64 422.4c-28.16 24.32-147.2 174.08-252.16 311.04zM652.8 419.84z" fill="#231C1C" /><path d="M307.2 358.4m-51.2 0a51.2 51.2 0 1 0 102.4 0 51.2 51.2 0 1 0-102.4 0Z" fill="#F29B54" /><path d="M307.2 422.4c-35.84 0-64-28.16-64-64s28.16-64 64-64 64 28.16 64 64-28.16 64-64 64z m0-102.4c-21.76 0-38.4 16.64-38.4 38.4s16.64 38.4 38.4 38.4 38.4-16.64 38.4-38.4-16.64-38.4-38.4-38.4z" fill="#231C1C" /></svg>