<?xml version="1.0" encoding="iso-8859-1"?>
<!-- Uploaded to: SVG Repo, www.svgrepo.com, Generator: SVG Repo Mixer Tools -->
<!DOCTYPE svg PUBLIC "-//W3C//DTD SVG 1.1//EN" "http://www.w3.org/Graphics/SVG/1.1/DTD/svg11.dtd">
<svg fill="#000000" version="1.1" id="Capa_1" xmlns="http://www.w3.org/2000/svg" xmlns:xlink="http://www.w3.org/1999/xlink" 
	 width="800px" height="800px" viewBox="0 0 43.475 43.475"
	 xml:space="preserve">
<g>
	<path d="M21.522,0.274c-8.318,0-10.933,3.402-11.208,3.798h-0.001v0.002c-0.01,0.014-0.024,0.034-0.027,0.039l0.027,0.019v6.19
		h2.717V4.491c1.202-0.849,3.722-2.042,8.492-2.042c4.976,0,7.964,1.335,9.441,2.248v5.625h2.717V4.073h-0.024l0.034-0.032
		C33.546,3.887,30.045,0.274,21.522,0.274z"/>
	<path d="M19.157,31.896V31.38c0-1.424,1.156-2.58,2.581-2.58c1.426,0,2.581,1.156,2.581,2.58v0.293
		c10.229-1.131,16.618-6.03,19.155-8.394v-1.002v-2.717V13.04H4.348C1.947,13.04,0,14.985,0,17.387v2.174v2.717v1.411
		C2.051,26.349,7.589,31.644,19.157,31.896z"/>
	<path d="M20.48,32.185v2.417c0,0.694,0.563,1.258,1.258,1.258c0.694,0,1.258-0.563,1.258-1.258v-2.417
		c0-0.694-0.564-1.258-1.258-1.258C21.043,30.927,20.48,31.49,20.48,32.185z"/>
	<path d="M43.475,38.853V26.421c-3.475,2.791-9.822,6.653-19.155,7.605v1.021c0,1.427-1.156,2.582-2.581,2.582
		c-1.425,0-2.581-1.155-2.581-2.582v-0.84c-10.003-0.207-15.958-3.93-19.156-7V43.2h39.127C41.528,43.2,43.475,41.253,43.475,38.853
		z"/>
</g>
</svg>