<?xml version="1.0" encoding="iso-8859-1"?>
<!-- Uploaded to: SVG Repo, www.svgrepo.com, Generator: SVG Repo Mixer Tools -->
<svg height="800px" width="800px" version="1.1" id="Layer_1" xmlns="http://www.w3.org/2000/svg" xmlns:xlink="http://www.w3.org/1999/xlink" 
	 viewBox="0 0 512 512" xml:space="preserve">
<path style="fill:#694646;" d="M476.69,97.103H349.235l-10.967-43.871c-3.94-15.75-18.026-26.75-34.259-26.75h-96.018
	c-16.233,0-30.319,11-34.259,26.75l-10.967,43.871H35.31C15.809,97.103,0,112.913,0,132.414v317.793
	c0,19.501,15.809,35.31,35.31,35.31H476.69c19.501,0,35.31-15.809,35.31-35.31V132.414C512,112.913,496.191,97.103,476.69,97.103z
	 M199.164,97.103l8.828-35.31h96.018l8.828,35.31H199.164z"/>
<path style="fill:#643C3E;" d="M512,132.414c0-19.501-15.809-35.31-35.31-35.31H35.31C15.809,97.103,0,112.913,0,132.414v20.52
	l43.811,131.435c8.424,25.272,31.982,42.252,58.623,42.252h307.133c26.639,0,50.198-16.98,58.622-42.253L512,152.934V132.414z"/>
<path style="fill:#735050;" d="M5.51,113.631l55.051,165.154c6.008,18.024,22.874,30.18,41.874,30.18h307.133
	c18.998,0,35.865-12.157,41.874-30.18l55.051-165.154c-6.255-9.902-17.224-16.527-29.802-16.527H35.31
	C22.732,97.103,11.764,103.729,5.51,113.631z"/>
<path style="fill:#FFB95A;" d="M273.655,361.931h-35.31c-4.875,0-8.828-3.953-8.828-8.828v-70.621c0-4.875,3.953-8.828,8.828-8.828
	h35.31c4.875,0,8.828,3.953,8.828,8.828v70.621C282.483,357.978,278.53,361.931,273.655,361.931z"/>
<path style="fill:#FFD26E;" d="M273.655,326.621h-35.31c-4.875,0-8.828-3.953-8.828-8.828v-35.31c0-4.875,3.953-8.828,8.828-8.828
	h35.31c4.875,0,8.828,3.953,8.828,8.828v35.31C282.483,322.668,278.53,326.621,273.655,326.621z"/>
</svg>