<?xml version="1.0" encoding="iso-8859-1"?>
<!-- Uploaded to: SVG Repo, www.svgrepo.com, Generator: SVG Repo Mixer Tools -->
<svg version="1.1" id="Layer_1" xmlns="http://www.w3.org/2000/svg" xmlns:xlink="http://www.w3.org/1999/xlink" 
	 viewBox="0 0 512 512" xml:space="preserve">
<rect x="15.261" y="19.789" style="fill:#CFF09E;" width="481.481" height="96.785"/>
<g>
	<path style="fill:#507C5C;" d="M496.739,131.839H15.261C6.834,131.839,0,125.005,0,116.578V19.789
		C0,11.362,6.834,4.528,15.261,4.528h481.478c8.427,0,15.261,6.834,15.261,15.261v96.789
		C512,125.005,505.168,131.839,496.739,131.839z M30.522,101.317h450.956V35.05H30.522V101.317z"/>
	<path style="fill:#507C5C;" d="M496.739,319.655H228.913c-8.427,0-15.261-6.834-15.261-15.261c0-8.427,6.834-15.261,15.261-15.261
		h252.565v-66.266H228.913c-8.427,0-15.261-6.834-15.261-15.261s6.834-15.261,15.261-15.261h267.826
		c8.427,0,15.261,6.834,15.261,15.261v96.788C512,312.821,505.168,319.655,496.739,319.655z"/>
</g>
<rect x="15.261" y="395.425" style="fill:#CFF09E;" width="481.481" height="96.785"/>
<g>
	<path style="fill:#507C5C;" d="M496.739,507.472H15.261C6.834,507.472,0,500.638,0,492.211v-96.789
		c0-8.427,6.834-15.261,15.261-15.261h481.478c8.427,0,15.261,6.834,15.261,15.261v96.789
		C512,500.64,505.168,507.472,496.739,507.472z M30.522,476.95h450.956v-66.267H30.522V476.95z"/>
	<path style="fill:#507C5C;" d="M91.623,271.261H15.261C6.834,271.261,0,264.427,0,256c0-8.427,6.834-15.261,15.261-15.261h76.362
		c8.427,0,15.261,6.834,15.261,15.261C106.884,264.427,100.052,271.261,91.623,271.261z"/>
</g>
<polygon style="fill:#CFF09E;" points="76.366,208.421 158.774,256 76.366,303.579 "/>
<path style="fill:#507C5C;" d="M76.366,318.84c-2.636,0-5.27-0.681-7.63-2.045c-4.722-2.726-7.63-7.765-7.63-13.216v-95.158
	c0-5.451,2.909-10.49,7.63-13.216c4.722-2.727,10.539-2.727,15.261,0l82.409,47.579c4.722,2.726,7.63,7.765,7.63,13.216
	c0,5.451-2.909,10.49-7.63,13.216l-82.409,47.579C81.635,318.158,79.001,318.84,76.366,318.84z M91.626,234.855v42.293
	l36.626-21.146L91.626,234.855z"/>
</svg>